<svg width="849" height="849" viewBox="0 0 849 849" fill="none" xmlns="http://www.w3.org/2000/svg">
<g clip-path="url(#clip0_131_5)">
<path d="M747.174 0.219294L99.6476 1.64191C44.6138 1.76282 0.0980167 46.4746 0.218927 101.508L1.64155 749.035C1.76246 804.069 46.4742 848.584 101.508 848.464L749.034 847.041C804.068 846.92 848.584 802.208 848.463 747.174L847.041 99.648C846.92 44.6141 802.208 0.0983841 747.174 0.219294Z" fill="#202123"/>
<path d="M240.186 565.203V389.025H144.125V373.879H257.724V565.203H240.186ZM244.57 327.243C239.522 327.243 235.137 325.516 231.417 322.062C227.696 318.608 225.836 313.957 225.836 308.111C225.836 302.265 227.696 297.615 231.417 294.16C235.137 290.706 239.522 288.979 244.57 288.979C249.885 288.979 254.269 290.706 257.724 294.16C261.444 297.615 263.304 302.265 263.304 308.111C263.304 313.957 261.444 318.608 257.724 322.062C254.269 325.516 249.885 327.243 244.57 327.243ZM350.041 628.977L480.381 282.203H498.317L367.978 628.977H350.041Z" fill="white"/>
<path d="M593.026 569.986C579.74 569.986 568.181 567.329 558.349 562.014C548.782 556.699 541.342 549.525 536.027 540.49C530.713 531.456 528.056 521.358 528.056 510.197C528.056 488.141 538.02 471.268 557.95 459.576C578.146 447.884 611.628 440.709 658.395 438.052C657.598 431.94 655.605 426.758 652.416 422.507C649.228 418.256 644.578 415.067 638.466 412.941C632.62 410.549 625.18 409.353 616.144 409.353C609.767 409.353 603.389 410.151 597.012 411.745C590.635 413.074 583.992 415.199 577.082 418.122C570.439 420.779 563.398 423.968 555.957 427.689L535.23 389.424C544.266 384.109 553.699 379.459 563.53 375.473C573.628 371.487 583.992 368.432 594.62 366.306C605.516 363.914 616.543 362.718 627.704 362.718C646.305 362.718 662.249 366.04 675.535 372.683C688.821 379.061 699.051 388.892 706.226 402.179C713.401 415.199 716.988 431.808 716.988 452.003V565.203H669.157L664.773 542.882H663.178C653.347 550.322 642.451 556.699 630.494 562.014C618.536 567.329 606.047 569.986 593.026 569.986ZM611.76 524.546C620.529 524.546 628.767 522.819 636.473 519.365C644.179 515.644 651.487 511.127 658.395 505.813V473.128C638.997 474.191 623.851 476.184 612.956 479.107C602.327 482.03 594.887 485.75 590.635 490.268C586.383 494.785 584.257 499.967 584.257 505.813C584.257 509.799 585.321 513.253 587.446 516.176C589.837 519.099 593.026 521.225 597.012 522.553C601.264 523.882 606.18 524.546 611.76 524.546Z" fill="#AF58C5"/>
<path d="M503.741 605.062H742.896V624.992H503.741V605.062Z" fill="#AF58C5"/>
</g>
<defs>
<clipPath id="clip0_131_5">
<rect width="849" height="849" fill="white"/>
</clipPath>
</defs>
</svg>
